<svg id="visual" viewBox="0 0 1400 540" width="1400" height="540" xmlns="http://www.w3.org/2000/svg" xmlns:xlink="http://www.w3.org/1999/xlink" version="1.1"><path d="M0 223L58.3 200C116.7 177 233.3 131 350 121.8C466.7 112.7 583.3 140.3 700 149.8C816.7 159.3 933.3 150.7 1050 165.2C1166.7 179.7 1283.3 217.3 1341.7 236.2L1400 255L1400 541L1341.7 541C1283.3 541 1166.7 541 1050 541C933.3 541 816.7 541 700 541C583.3 541 466.7 541 350 541C233.3 541 116.7 541 58.3 541L0 541Z" fill="#f05453" stroke-linecap="round" stroke-linejoin="miter"></path></svg>