<svg id="visual" viewBox="0 0 960 540" width="960" height="540" xmlns="http://www.w3.org/2000/svg" xmlns:xlink="http://www.w3.org/1999/xlink" version="1.1"><rect x="0" y="0" width="960" height="540" fill="#f8f9fa"></rect><defs><linearGradient id="grad1_0" x1="43.8%" y1="0%" x2="100%" y2="100%"><stop offset="14.444444444444446%" stop-color="#05305b" stop-opacity="1"></stop><stop offset="85.55555555555554%" stop-color="#05305b" stop-opacity="1"></stop></linearGradient></defs><defs><linearGradient id="grad1_1" x1="43.8%" y1="0%" x2="100%" y2="100%"><stop offset="14.444444444444446%" stop-color="#05305b" stop-opacity="1"></stop><stop offset="85.55555555555554%" stop-color="#f8f9fa" stop-opacity="1"></stop></linearGradient></defs><defs><linearGradient id="grad2_0" x1="0%" y1="0%" x2="56.3%" y2="100%"><stop offset="14.444444444444446%" stop-color="#05305b" stop-opacity="1"></stop><stop offset="85.55555555555554%" stop-color="#05305b" stop-opacity="1"></stop></linearGradient></defs><defs><linearGradient id="grad2_1" x1="0%" y1="0%" x2="56.3%" y2="100%"><stop offset="14.444444444444446%" stop-color="#f8f9fa" stop-opacity="1"></stop><stop offset="85.55555555555554%" stop-color="#05305b" stop-opacity="1"></stop></linearGradient></defs><g transform="translate(960, 0)"><path d="M0 243C-34.7 242.5 -69.5 242 -93 224.5C-116.5 207 -128.7 172.5 -148.5 148.5C-168.2 124.5 -195.5 111 -212.5 88C-229.5 65 -236.2 32.5 -243 0L0 0Z" fill="#7d8fa8"></path><path d="M0 121.5C-17.4 121.3 -34.7 121 -46.5 112.3C-58.2 103.5 -64.4 86.2 -74.2 74.2C-84.1 62.2 -97.7 55.5 -106.2 44C-114.7 32.5 -118.1 16.3 -121.5 0L0 0Z" fill="#05305b"></path></g><g transform="translate(0, 540)"><path d="M0 -243C30.5 -237.1 60.9 -231.3 91.5 -220.8C122 -210.3 152.6 -195.3 171.8 -171.8C191 -148.4 198.8 -116.5 208.8 -86.5C218.8 -56.4 230.9 -28.2 243 0L0 0Z" fill="#7d8fa8"></path><path d="M0 -121.5C15.2 -118.6 30.5 -115.6 45.7 -110.4C61 -105.2 76.3 -97.6 85.9 -85.9C95.5 -74.2 99.4 -58.3 104.4 -43.2C109.4 -28.2 115.4 -14.1 121.5 0L0 0Z" fill="#05305b"></path></g></svg>