<svg width="44" height="44" viewBox="0 0 44 44" fill="none" xmlns="http://www.w3.org/2000/svg">
<path d="M44 22C44 34.1503 34.1503 44 22 44C9.84974 44 0 34.1503 0 22C0 9.84974 9.84974 0 22 0C34.1503 0 44 9.84974 44 22Z" fill="#FFF5E7"/>
<path fill-rule="evenodd" clip-rule="evenodd" d="M22 42.5C33.3218 42.5 42.5 33.3218 42.5 22C42.5 10.6782 33.3218 1.5 22 1.5C10.6782 1.5 1.5 10.6782 1.5 22C1.5 33.3218 10.6782 42.5 22 42.5ZM22 44C34.1503 44 44 34.1503 44 22C44 9.84974 34.1503 0 22 0C9.84974 0 0 9.84974 0 22C0 34.1503 9.84974 44 22 44Z" fill="#FF661B"/>
<path fill-rule="evenodd" clip-rule="evenodd" d="M15.3662 19C15.954 15.8712 18.7005 13.5039 22 13.5039C25.2995 13.5039 28.046 15.8712 28.6338 19H28.1228C27.5705 19 27.1228 19.4477 27.1228 20V25C27.1228 25.5523 27.5705 26 28.1228 26H28.5843C28.4566 27.6781 27.0546 29 25.3438 29H25.2573C25.0463 28.1216 24.2556 27.4688 23.3125 27.4688H20.6875C19.5829 27.4688 18.6875 28.3642 18.6875 29.4688V30C18.6875 31.1046 19.5829 32 20.6875 32H23.3125C24.2444 32 25.0275 31.3626 25.2495 30.5H25.3438C27.9371 30.5 30.0451 28.4216 30.0929 25.8397C31.2737 25.4364 32.1228 24.3174 32.1228 23V22C32.1228 20.7161 31.3163 19.6206 30.1824 19.1925C29.6615 15.1375 26.1967 12.0039 22 12.0039C17.7647 12.0039 14.2748 15.1954 13.804 19.3047C12.8083 19.7928 12.1228 20.8163 12.1228 22V23C12.1228 24.6569 13.4659 26 15.1228 26H16.1228C16.6751 26 17.1228 25.5523 17.1228 25V20C17.1228 19.4477 16.6751 19 16.1228 19H15.3662ZM15.6228 20.5H15.1228C14.2944 20.5 13.6228 21.1716 13.6228 22V23C13.6228 23.8284 14.2944 24.5 15.1228 24.5H15.6228V20.5ZM28.6228 20.5V24.5H29.1228C29.9512 24.5 30.6228 23.8284 30.6228 23V22C30.6228 21.1716 29.9512 20.5 29.1228 20.5H28.6228ZM20.6875 28.9688C20.4114 28.9688 20.1875 29.1926 20.1875 29.4688V30C20.1875 30.2761 20.4114 30.5 20.6875 30.5H23.3125C23.5886 30.5 23.8125 30.2761 23.8125 30V29.4688C23.8125 29.1926 23.5886 28.9688 23.3125 28.9688H20.6875Z" fill="#FF661B"/>
</svg>
