<svg width="44" height="44" viewBox="0 0 44 44" fill="none" xmlns="http://www.w3.org/2000/svg">
<path d="M44 22C44 34.1503 34.1503 44 22 44C9.84974 44 0 34.1503 0 22C0 9.84974 9.84974 0 22 0C34.1503 0 44 9.84974 44 22Z" fill="#F8FDF7"/>
<path fill-rule="evenodd" clip-rule="evenodd" d="M22 42.5C33.3218 42.5 42.5 33.3218 42.5 22C42.5 10.6782 33.3218 1.5 22 1.5C10.6782 1.5 1.5 10.6782 1.5 22C1.5 33.3218 10.6782 42.5 22 42.5ZM22 44C34.1503 44 44 34.1503 44 22C44 9.84974 34.1503 0 22 0C9.84974 0 0 9.84974 0 22C0 34.1503 9.84974 44 22 44Z" fill="#49BC3A"/>
<path fill-rule="evenodd" clip-rule="evenodd" d="M15.25 20.2617C15.25 16.688 18.2491 13.75 22 13.75C25.7509 13.75 28.75 16.688 28.75 20.2617C28.75 21.1564 28.4448 22.1504 27.9156 23.1891C27.3891 24.2223 26.6637 25.2555 25.8788 26.2156C24.4134 28.0083 22.7878 29.49 22 30.1727C21.2122 29.49 19.5866 28.0083 18.1212 26.2156C17.3363 25.2555 16.6109 24.2223 16.0844 23.1891C15.5552 22.1504 15.25 21.1564 15.25 20.2617ZM22 12.25C17.4667 12.25 13.75 15.8143 13.75 20.2617C13.75 21.4806 14.1596 22.7155 14.7479 23.8701C15.339 25.0301 16.1338 26.1544 16.9598 27.1649C18.6115 29.1854 20.4418 30.8157 21.1817 31.4474C21.6543 31.8507 22.3456 31.8508 22.8181 31.4476C23.5581 30.8158 25.3885 29.1854 27.0402 27.1649C27.8662 26.1544 28.661 25.0301 29.2521 23.8701C29.8404 22.7155 30.25 21.4806 30.25 20.2617C30.25 15.8143 26.5333 12.25 22 12.25ZM19.75 20.5C19.75 19.2574 20.7574 18.25 22 18.25C23.2426 18.25 24.25 19.2574 24.25 20.5C24.25 21.7426 23.2426 22.75 22 22.75C20.7574 22.75 19.75 21.7426 19.75 20.5ZM22 16.75C19.9289 16.75 18.25 18.4289 18.25 20.5C18.25 22.5711 19.9289 24.25 22 24.25C24.0711 24.25 25.75 22.5711 25.75 20.5C25.75 18.4289 24.0711 16.75 22 16.75Z" fill="#49BC3A"/>
</svg>
