<svg width="44" height="44" viewBox="0 0 44 44" fill="none" xmlns="http://www.w3.org/2000/svg">
<path d="M44 22C44 34.1503 34.1503 44 22 44C9.84974 44 0 34.1503 0 22C0 9.84974 9.84974 0 22 0C34.1503 0 44 9.84974 44 22Z" fill="#F8F1FA"/>
<path fill-rule="evenodd" clip-rule="evenodd" d="M22 42.5C33.3218 42.5 42.5 33.3218 42.5 22C42.5 10.6782 33.3218 1.5 22 1.5C10.6782 1.5 1.5 10.6782 1.5 22C1.5 33.3218 10.6782 42.5 22 42.5ZM22 44C34.1503 44 44 34.1503 44 22C44 9.84974 34.1503 0 22 0C9.84974 0 0 9.84974 0 22C0 34.1503 9.84974 44 22 44Z" fill="#9F26B4"/>
<path fill-rule="evenodd" clip-rule="evenodd" d="M23.351 12.6254C22.6508 11.7671 21.3394 11.7671 20.6392 12.6254L19.5265 13.9891C19.4645 14.0651 19.3638 14.0978 19.269 14.0728L17.5672 13.6235C16.4962 13.3408 15.4353 14.1116 15.3732 15.2175L15.2746 16.9748C15.2691 17.0728 15.2069 17.1584 15.1155 17.1939L13.4746 17.8307C12.442 18.2315 12.0368 19.4787 12.6366 20.4098L13.5898 21.8895C13.6429 21.972 13.6429 22.0778 13.5898 22.1603L12.6366 23.64C12.0368 24.5711 12.442 25.8183 13.4746 26.2191L15.1155 26.8559C15.2069 26.8914 15.2691 26.9771 15.2746 27.075L15.3732 28.8323C15.4353 29.9382 16.4962 30.709 17.5672 30.4263L19.269 29.977C19.3638 29.952 19.4645 29.9847 19.5265 30.0607L20.6392 31.4244C21.3394 32.2827 22.6508 32.2827 23.351 31.4244L24.4638 30.0607C24.5257 29.9847 24.6264 29.952 24.7213 29.977L26.4231 30.4263C27.494 30.709 28.5549 29.9382 28.617 28.8323L28.7156 27.075C28.7211 26.9771 28.7833 26.8914 28.8748 26.8559L30.5156 26.2191C31.5482 25.8183 31.9534 24.5711 31.3536 23.64L30.4005 22.1603C30.3474 22.0778 30.3474 21.972 30.4005 21.8895L31.3536 20.4098C31.9534 19.4787 31.5482 18.2315 30.5156 17.8307L28.8748 17.1939C28.7833 17.1584 28.7211 17.0728 28.7156 16.9748L28.617 15.2175C28.5549 14.1116 27.494 13.3408 26.4231 13.6235L24.7213 14.0728C24.6264 14.0978 24.5257 14.0651 24.4638 13.9891L23.351 12.6254ZM21.8014 13.5737C21.9014 13.4511 22.0888 13.4511 22.1888 13.5737L23.3015 14.9374C23.7355 15.4693 24.4404 15.6983 25.1041 15.5231L26.8059 15.0738C26.9589 15.0335 27.1105 15.1436 27.1193 15.3016L27.218 17.0589C27.2564 17.7443 27.6921 18.3439 28.332 18.5923L29.9729 19.2291C30.1204 19.2864 30.1783 19.4645 30.0926 19.5975L29.1394 21.0772C28.7677 21.6543 28.7677 22.3955 29.1394 22.9726L30.0926 24.4523C30.1783 24.5853 30.1204 24.7635 29.9729 24.8207L28.332 25.4575C27.6921 25.7059 27.2564 26.3055 27.218 26.9909L27.1193 28.7482C27.1105 28.9062 26.9589 29.0163 26.8059 28.976L25.1041 28.5267C24.4404 28.3515 23.7355 28.5805 23.3015 29.1124L22.1888 30.4762C22.0888 30.5988 21.9014 30.5988 21.8014 30.4762L20.6887 29.1124C20.2547 28.5805 19.5498 28.3515 18.8861 28.5267L17.1843 28.976C17.0313 29.0163 16.8798 28.9062 16.8709 28.7482L16.7723 26.9909C16.7338 26.3055 16.2982 25.7059 15.6582 25.4575L14.0174 24.8207C13.8698 24.7635 13.812 24.5853 13.8976 24.4523L14.8508 22.9726C15.2225 22.3955 15.2225 21.6543 14.8508 21.0772L13.8976 19.5975C13.812 19.4645 13.8698 19.2864 14.0174 19.2291L15.6582 18.5923C16.2982 18.3439 16.7338 17.7443 16.7723 17.0589L16.8709 15.3016C16.8798 15.1436 17.0313 15.0335 17.1843 15.0738L18.8861 15.5231C19.5498 15.6983 20.2547 15.4693 20.6887 14.9374L21.8014 13.5737ZM26.5303 18.5301C26.8232 18.2372 26.8232 17.7623 26.5303 17.4694C26.2374 17.1765 25.7626 17.1765 25.4697 17.4694L17.4697 25.4694C17.1768 25.7623 17.1768 26.2372 17.4697 26.5301C17.7626 26.823 18.2374 26.823 18.5303 26.5301L26.5303 18.5301ZM19.25 20C19.6642 20 20 19.6642 20 19.25C20 18.8358 19.6642 18.5 19.25 18.5C18.8358 18.5 18.5 18.8358 18.5 19.25C18.5 19.6642 18.8358 20 19.25 20ZM19.25 21.5C20.4926 21.5 21.5 20.4926 21.5 19.25C21.5 18.0074 20.4926 17 19.25 17C18.0074 17 17 18.0074 17 19.25C17 20.4926 18.0074 21.5 19.25 21.5ZM25.5 24.75C25.5 25.1642 25.1642 25.5 24.75 25.5C24.3358 25.5 24 25.1642 24 24.75C24 24.3358 24.3358 24 24.75 24C25.1642 24 25.5 24.3358 25.5 24.75ZM27 24.75C27 25.9926 25.9926 27 24.75 27C23.5074 27 22.5 25.9926 22.5 24.75C22.5 23.5074 23.5074 22.5 24.75 22.5C25.9926 22.5 27 23.5074 27 24.75Z" fill="#9F26B4"/>
</svg>
