<svg width="44" height="44" viewBox="0 0 44 44" fill="none" xmlns="http://www.w3.org/2000/svg">
<path d="M44 22C44 34.1503 34.1503 44 22 44C9.84974 44 0 34.1503 0 22C0 9.84974 9.84974 0 22 0C34.1503 0 44 9.84974 44 22Z" fill="#F7FBFE"/>
<path fill-rule="evenodd" clip-rule="evenodd" d="M22 42.5C33.3218 42.5 42.5 33.3218 42.5 22C42.5 10.6782 33.3218 1.5 22 1.5C10.6782 1.5 1.5 10.6782 1.5 22C1.5 33.3218 10.6782 42.5 22 42.5ZM22 44C34.1503 44 44 34.1503 44 22C44 9.84974 34.1503 0 22 0C9.84974 0 0 9.84974 0 22C0 34.1503 9.84974 44 22 44Z" fill="#348DE5"/>
<path fill-rule="evenodd" clip-rule="evenodd" d="M20.4308 13.3851C21.0727 12.0844 22.9274 12.0844 23.5693 13.3851L25.6581 17.6173C25.6945 17.6911 25.7649 17.7422 25.8463 17.7541L30.5168 18.4327C31.9522 18.6413 32.5253 20.4052 31.4867 21.4177L28.1071 24.712C28.0481 24.7694 28.0213 24.8522 28.0352 24.9333L28.833 29.5849C29.0782 31.0145 27.5777 32.1047 26.2938 31.4297L22.1164 29.2335C22.0436 29.1952 21.9565 29.1952 21.8837 29.2335L17.7063 31.4297C16.4224 32.1047 14.9219 31.0145 15.1671 29.5849L15.9649 24.9333C15.9788 24.8522 15.952 24.7694 15.893 24.712L12.5134 21.4177C11.4748 20.4052 12.0479 18.6413 13.4833 18.4327L18.1538 17.7541C18.2352 17.7422 18.3056 17.6911 18.342 17.6173L20.4308 13.3851ZM22.2242 14.0489C22.1325 13.8631 21.8676 13.8631 21.7759 14.0489L19.6871 18.2811C19.4322 18.7976 18.9395 19.1556 18.3695 19.2385L13.699 19.9171C13.4939 19.9469 13.4121 20.1989 13.5604 20.3435L16.9401 23.6379C17.3525 24.0399 17.5407 24.6192 17.4433 25.1868L16.6455 29.8385C16.6105 30.0427 16.8249 30.1985 17.0083 30.102L21.1857 27.9058C21.6955 27.6378 22.3046 27.6378 22.8144 27.9058L26.9918 30.102C27.1752 30.1984 27.3896 30.0427 27.3546 29.8385L26.5567 25.1868C26.4594 24.6192 26.6476 24.0399 27.06 23.6379L30.4397 20.3435C30.588 20.1989 30.5062 19.9469 30.3011 19.9171L25.6306 19.2385C25.0606 19.1556 24.5679 18.7976 24.313 18.2811L22.2242 14.0489Z" fill="#348DE5"/>
</svg>
